FILE "track01.ogg" OGG
  TRACK 01 AUDIO
    INDEX 01 00:00:00
FILE "track02.bin" BINARY
  TRACK 02 MODE1/2352
    INDEX 00 00:00:00
    INDEX 01 00:03:00
FILE "track03.bin" BINARY
  TRACK 03 AUDIO
    INDEX 00 00:00:00
    INDEX 01 00:02:00
FILE "track04.wav" WAV
  TRACK 04 AUDIO
    INDEX 01 00:00:00
FILE "track05.mp3" MP3
  TRACK 05 AUDIO
    INDEX 01 00:00:00
